HIERARCHY
ROOT Hips
{
	OFFSET 0.000000 0.000000 0.000000 
	CHANNELS 6 Xposition Yposition Zposition Yrotation Zrotation Xrotation 
	JOINT Lumbar
	{
		OFFSET 0.000000 0.000000 0.000000 
		CHANNELS 3 Zrotation Xrotation Yrotation
		JOINT Neck
		{
			OFFSET 0.000000 0.445665 0.000000 
			CHANNELS 3 Zrotation Xrotation Yrotation
			End Site
			{
				OFFSET 0.000000 0.227535 0.000000 
			}
		}
		JOINT RightShoulder
		{
			OFFSET 0.019635 0.377685 0.194865 
			CHANNELS 3 Zrotation Xrotation Yrotation
			JOINT RightElbow
			{
				OFFSET 0.000000 -0.243375 0.000000 
				CHANNELS 2 Zrotation Yrotation
				JOINT RightWrist
				{
					OFFSET 0.000000 -0.264825 0.000000 
					CHANNELS 2 Zrotation Xrotation
					End Site
					{
						OFFSET 0.006600 -0.176220 0.000990 
					}
				}
			}
		}
		JOINT LeftShoulder
		{
			OFFSET 0.019635 0.377685 -0.194865 
			CHANNELS 3 Zrotation Xrotation Yrotation
			JOINT LeftElbow
			{
				OFFSET 0.000000 -0.243375 0.000000 
				CHANNELS 2 Zrotation Yrotation
				JOINT LeftWrist
				{
					OFFSET 0.000000 -0.264825 0.000000 
					CHANNELS 2 Zrotation Xrotation
					End Site
					{
						OFFSET 0.006600 -0.176220 -0.000990 
					}
				}
			}
		}
	}
	JOINT RightHip
	{
		OFFSET 0.052140 -0.069960 0.075570 
		CHANNELS 3 Zrotation Xrotation Yrotation
		JOINT RightKnee
		{
			OFFSET 0.000000 -0.402270 0.000000 
			CHANNELS 1 Zrotation
			JOINT RightAnkle
			{
				OFFSET 0.000000 -0.404085 0.000000 
				CHANNELS 3 Zrotation Xrotation Yrotation
				End Site
				{
					OFFSET 0.204105 -0.089430 0.008415 
				}
			}
		}
	}
	JOINT LeftHip
	{
		OFFSET 0.052140 -0.069960 -0.075570 
		CHANNELS 3 Zrotation Xrotation Yrotation
		JOINT LeftKnee
		{
			OFFSET 0.000000 -0.402270 0.000000 
			CHANNELS 1 Zrotation
			JOINT LeftAnkle
			{
				OFFSET 0.000000 -0.404085 0.000000 
				CHANNELS 3 Zrotation Xrotation Yrotation
				End Site
				{
					OFFSET 0.204105 -0.089430 -0.008415 
				}
			}
		}
	}
}
MOTION
Frames: 33
Frame Time: 0.02
0.00104 0.00025 -0.00023 22.20903 -22.87694 -6.68525 42.01885 2.5979 -5.98361 -13.22064 -0.75567 -1.21037 78.54129 -98.31258 55.63576 5.785 100.00452 11.54299 2.428 166.38796 83.97883 30.02694 8.01573 -74.15279 -10.79789 -1.40453 38.3036 -3.71788 -8.44835 -22.48234 -6.82901 -2.59643 -3.4956 42.50088 7.50623 2.06485 -27.63927 -6.58523 1.65489 3.03809
0.00135 0.0003 -0.00017 22.23632 -22.88625 -6.68042 42.02714 2.58896 -5.98991 -13.21009 -0.75295 -1.21093 78.12761 -98.33196 55.63543 5.78539 99.96185 11.5032 2.33987 166.38775 83.97291 30.18494 7.9904 -74.14381 -10.78391 -1.37928 38.2817 -3.75848 -8.68284 -22.48439 -6.82177 -2.57222 -3.48439 42.49282 7.54068 2.19657 -27.63843 -6.58627 1.64889 3.03464
0.00165 0.00035 -0.00011 22.2635 -22.89551 -6.67561 42.0354 2.58004 -5.99615 -13.19958 -0.75022 -1.21149 77.71459 -98.35127 55.6351 5.78578 99.91924 11.46348 2.25188 166.38753 83.96705 30.34258 7.9651 -74.1348 -10.76994 -1.35408 38.25981 -3.79898 -8.91682 -22.48644 -6.81455 -2.54807 -3.4732 42.48473 7.57507 2.32803 -27.63759 -6.58731 1.64289 3.03119
0.00196 0.0004 -6e-05 22.2907 -22.9048 -6.67079 42.04367 2.57113 -6.00242 -13.18906 -0.7475 -1.21206 77.30206 -98.37059 55.63477 5.78617 99.87669 11.4238 2.16399 166.38732 83.96114 30.50011 7.93984 -74.12584 -10.756 -1.3289 38.23797 -3.83946 -9.15063 -22.48849 -6.80733 -2.52394 -3.46203 42.47669 7.60943 2.45938 -27.63676 -6.58835 1.6369 3.02775
0.00227 0.00044 0 22.31803 -22.91414 -6.66596 42.05197 2.56218 -6.00875 -13.17849 -0.74481 -1.21262 76.88914 -98.39001 55.63444 5.78656 99.8341 11.3841 2.07602 166.3871 83.95518 30.65795 7.91457 -74.1169 -10.74205 -1.30368 38.21612 -3.88002 -9.38485 -22.49054 -6.80009 -2.49976 -3.45083 42.46869 7.64383 2.59094 -27.63592 -6.58938 1.63093 3.02431
0.00258 0.00049 6e-05 22.34489 -22.92324 -6.66116 42.06014 2.55334 -6.01479 -13.1681 -0.74198 -1.21318 76.47597 -98.40906 55.63412 5.78695 99.79145 11.34434 1.988 166.38689 83.94952 30.81515 7.88918 -74.10777 -10.72806 -1.27853 38.19416 -3.92041 -9.61832 -22.49258 -6.79289 -2.47567 -3.43967 42.46041 7.6782 2.72217 -27.63507 -6.59042 1.62487 3.02084
0.00289 0.00054 0.00011 22.37265 -22.93281 -6.65632 42.06856 2.5443 -6.02141 -13.15736 -0.73942 -1.21374 76.06365 -98.42884 55.63379 5.78734 99.74898 11.30473 1.90015 166.38667 83.94322 30.97347 7.86408 -74.09902 -10.71416 -1.25326 38.17244 -3.9611 -9.85308 -22.49464 -6.78563 -2.45143 -3.42845 42.4527 7.71259 2.85393 -27.63425 -6.59146 1.61899 3.01743
0.0032 0.00059 0.00017 22.3996 -22.94196 -6.65151 42.07676 2.53544 -6.02751 -13.14694 -0.73663 -1.21431 75.65076 -98.44793 55.63346 5.78772 99.70634 11.26499 1.81217 166.38646 83.93759 31.13076 7.83868 -74.08994 -10.70019 -1.2281 38.15052 -4.0015 -10.08656 -22.49668 -6.77842 -2.42733 -3.41728 42.44448 7.74696 2.98519 -27.63341 -6.59249 1.61294 3.01397
0.0035 0.00063 0.00023 22.4255 -22.95053 -6.64674 42.08467 2.52682 -6.03293 -13.13694 -0.73351 -1.21487 75.23603 -98.46626 55.63314 5.78811 99.66347 11.225 1.72389 166.38625 83.93247 31.28684 7.81304 -74.08039 -10.68605 -1.20307 38.12827 -4.04163 -10.31899 -22.49869 -6.77127 -2.40339 -3.40617 42.43554 7.78133 3.11593 -27.63252 -6.59352 1.6067 3.01043
0.00382 0.00068 0.00029 22.45728 -22.96224 -6.64173 42.09416 2.51685 -6.04212 -13.12461 -0.73215 -1.21544 74.82841 -98.48919 55.63278 5.78851 99.62185 11.18618 1.6369 166.38601 83.9235 31.45004 7.78916 -74.07333 -10.67267 -1.17727 38.10764 -4.08357 -10.55901 -22.50086 -6.76376 -2.37846 -3.39471 42.43047 7.81579 3.24994 -27.63185 -6.59458 1.60158 3.00729
0.00411 0.00073 0.00033 22.47673 -22.96746 -6.63726 42.1004 2.50972 -6.04345 -13.11715 -0.72713 -1.21598 74.40812 -98.5023 55.6325 5.78888 99.57766 11.1451 1.54749 166.38583 83.92321 31.59812 7.7613 -74.06115 -10.65782 -1.15311 38.08379 -4.12154 -10.78197 -22.5027 -6.75703 -2.35569 -3.38402 42.41742 7.84998 3.37688 -27.63075 -6.59559 1.59413 3.00334
0.00434 0.00076 0.00033 22.46154 -22.95369 -6.63407 42.0969 2.51058 -6.0221 -13.12364 -0.71141 -1.21646 73.93393 -98.48913 55.63245 5.78919 99.52569 11.09603 1.44886 166.3858 83.94262 31.70487 7.72455 -74.03377 -10.63763 -1.13364 38.04941 -4.14978 -10.96645 -22.50362 -6.75234 -2.33827 -3.37512 42.38061 7.88416 3.48532 -27.62825 -6.59648 1.58008 2.99705
0.00454 0.00078 0.00031 22.43411 -22.93364 -6.63144 42.09031 2.51426 -5.99302 -13.13493 -0.69209 -1.21692 73.45095 -98.46599 55.63247 5.78949 99.47134 11.04506 1.34833 166.38576 83.97157 31.79613 7.68331 -74.00147 -10.6162 -1.11588 38.01214 -4.17383 -11.1323 -22.50423 -6.74846 -2.32313 -3.36706 42.33615 7.91785 3.58621 -27.62537 -6.59731 1.56378 2.98999
0.00475 0.00081 0.0003 22.41282 -22.91721 -6.62867 42.08565 2.51657 -5.96823 -13.14366 -0.67486 -1.21738 72.98403 -98.447 55.63246 5.78979 99.41844 10.99609 1.25028 166.38588 83.99883 31.89479 7.64293 -73.97213 -10.59614 -1.09709 37.97726 -4.19899 -11.30118 -22.50497 -6.74428 -2.30732 -3.35884 42.29636 7.95141 3.69035 -27.62281 -6.59818 1.54863 2.98336
0.00497 0.00084 0.0003 22.38911 -22.89748 -6.62545 42.07869 2.51929 -5.94027 -13.15399 -0.65585 -1.21786 72.46459 -98.4296 55.63245 5.79008 99.36365 10.94218 1.14518 166.3857 84.01479 31.99312 7.60798 -73.93963 -10.57261 -1.079 37.93768 -4.22739 -11.49278 -22.5057 -6.73979 -2.28996 -3.34969 42.2514 7.98681 3.79644 -27.61962 -6.59905 1.53284 2.97635
0.00516 0.00086 0.00027 22.3675 -22.88322 -6.62328 42.07589 2.52178 -5.91696 -13.16214 -0.63953 -1.21829 72.05442 -98.40652 55.63246 5.79042 99.31264 10.89827 1.05459 166.38571 84.05675 32.08695 7.56006 -73.91265 -10.55612 -1.06032 37.90737 -4.24818 -11.63286 -22.50643 -6.73614 -2.27635 -3.34267 42.21551 8.01782 3.89517 -27.61765 -6.59986 1.51799 2.97001
0.00526 0.00088 0.0002 22.35525 -22.88474 -6.62409 42.08429 2.52334 -5.90931 -13.1629 -0.63277 -1.21853 71.93274 -98.36998 55.63245 5.79084 99.26961 10.88145 1.002 166.38628 84.16603 32.19194 7.48306 -73.90037 -10.55821 -1.03532 37.90203 -4.24806 -11.63336 -22.50671 -6.73466 -2.27271 -3.34139 42.20539 8.04071 3.98929 -27.6191 -6.60078 1.505 2.96503
0.00532 0.00089 0.0001 22.34543 -22.89209 -6.62589 42.09713 2.52449 -5.90644 -13.16138 -0.62859 -1.21872 71.92509 -98.32798 55.63245 5.79144 99.23131 10.87519 0.96443 166.38455 84.3013 32.294 7.39242 -73.89342 -10.56755 -1.01015 37.90632 -4.2406 -11.58299 -22.5071 -6.734 -2.27274 -3.34221 42.20479 8.05865 4.07437 -27.62178 -6.6016 1.49321 2.96085
0.0054 0.0009 2e-05 22.33417 -22.8974 -6.6271 42.10868 2.52556 -5.90076 -13.161 -0.6224 -1.21897 71.87419 -98.28876 55.63245 5.7919 99.19248 10.86445 0.92181 166.38699 84.42644 32.37833 7.30389 -73.88612 -10.57447 -0.9883 37.90715 -4.23711 -11.55714 -22.50781 -6.73294 -2.27099 -3.34201 42.20066 8.0761 4.15364 -27.6239 -6.60226 1.48179 2.9568
0.00549 0.00091 -6e-05 22.324 -22.90013 -6.62894 42.11725 2.52787 -5.89752 -13.1602 -0.61966 -1.2191 71.78315 -98.24845 55.63245 5.7922 99.14558 10.85134 0.87214 166.38644 84.54591 32.523 7.23113 -73.87288 -10.5781 -0.95417 37.90424 -4.2308 -11.52478 -22.50698 -6.73201 -2.26978 -3.3421 42.19322 8.10439 4.27168 -27.62602 -6.60371 1.46668 2.95077
0.00556 0.00092 -0.00016 22.3122 -22.90941 -6.62967 42.13288 2.52744 -5.89045 -13.15985 -0.61035 -1.21945 71.80748 -98.20858 55.63245 5.79338 99.11807 10.84688 0.84007 166.37877 84.68186 32.56607 7.12403 -73.86961 -10.58974 -0.94385 37.91116 -4.22868 -11.49409 -22.50933 -6.73101 -2.26832 -3.34208 42.19466 8.10979 4.31047 -27.62842 -6.60356 1.45929 2.9489
0.00558 0.00091 -0.00031 22.29609 -22.93795 -6.62714 42.16909 2.51959 -5.87145 -13.16001 -0.58265 -1.22044 72.09156 -98.17641 55.63245 5.79237 99.13151 10.85953 0.85893 166.40163 84.86764 32.12147 6.91423 -73.92626 -10.62366 -1.01549 37.94557 -4.23986 -11.48066 -22.52088 -6.72948 -2.26504 -3.34124 42.22164 8.04567 4.10158 -27.63132 -6.59844 1.47544 2.9598
0.00558 0.0009 -0.00049 22.27812 -22.97245 -6.62341 42.21194 2.50893 -5.84856 -13.16105 -0.54821 -1.22165 72.49911 -98.14353 55.63246 5.79287 99.16692 10.88534 0.89392 166.36668 85.06629 31.61521 6.67476 -73.98762 -10.66291 -1.10906 37.98916 -4.25551 -11.47046 -22.53555 -6.72786 -2.26143 -3.34024 42.2567 7.95997 3.81858 -27.63444 -6.5918 1.49891 2.9746
0.00559 0.0009 -0.00066 22.26065 -23.0025 -6.6202 42.25026 2.49955 -5.82756 -13.16233 -0.51657 -1.22275 72.86348 -98.10825 55.63247 5.79598 99.19918 10.90275 0.91756 166.37827 85.25293 31.27153 6.45332 -74.02328 -10.70117 -1.18072 38.02667 -4.26919 -11.45912 -22.54844 -6.72636 -2.25812 -3.33933 42.28582 7.88926 3.59051 -27.63744 -6.58623 1.51739 2.9866
0.0056 0.00089 -0.00082 22.24495 -23.03995 -6.61723 42.29485 2.4903 -5.80602 -13.16028 -0.48604 -1.22391 73.15472 -98.08609 55.63244 5.78609 99.20082 10.91416 0.95851 166.4744 85.46961 30.35308 6.20277 -74.15391 -10.74239 -1.29877 38.07218 -4.28246 -11.44576 -22.56278 -6.72458 -2.25428 -3.3384 42.32461 7.79703 3.27442 -27.64057 -6.57907 1.54282 3.0029
0.0056 0.00088 -0.00099 22.22479 -23.06354 -6.61335 42.32826 2.47991 -5.78488 -13.16611 -0.45171 -1.225 73.65434 -98.03422 55.63249 5.80247 99.27382 10.96184 0.96728 166.16734 85.62253 30.62545 6.0178 -74.09364 -10.76763 -1.33046 38.10355 -4.29758 -11.43661 -22.57494 -6.72335 -2.25146 -3.33747 42.34537 7.74386 3.12167 -27.64346 -6.57483 1.55565 3.01127
0.00555 0.00088 -0.00122 22.19544 -23.04545 -6.6083 42.32587 2.46872 -5.76339 -13.18757 -0.40718 -1.22583 74.46213 -97.92364 55.63278 5.90128 99.52227 10.93546 0.88193 166.65761 85.62817 34.11894 5.92167 -73.45967 -10.84441 -1.07386 38.08946 -4.31813 -11.4512 -22.5795 -6.72355 -2.25111 -3.3362 42.31152 7.81008 3.46013 -27.64557 -6.57932 1.53047 2.99573
0.00549 0.00087 -0.00146 22.16113 -23.0135 -6.6022 42.31256 2.45613 -5.74286 -13.21811 -0.35931 -1.22659 75.52234 -97.78131 55.63314 6.0247 99.84792 10.98168 0.7643 166.43979 85.56227 38.81931 5.91223 -72.64523 -10.88879 -0.73701 38.06149 -4.34017 -11.46807 -22.58188 -6.72431 -2.25183 -3.33497 42.25969 7.91531 3.96166 -27.64742 -6.58676 1.4926 2.97225
0.00543 0.00087 -0.00169 22.12739 -22.98916 -6.59588 42.3064 2.4431 -5.72344 -13.24829 -0.31385 -1.22742 76.61771 -97.63529 55.63346 6.12991 100.14487 11.10083 0.66165 165.23919 85.50915 43.03259 5.92713 -71.93889 -10.8819 -0.46721 38.04259 -4.36059 -11.47525 -22.58583 -6.72489 -2.25234 -3.334 42.21792 7.9985 4.37385 -27.64939 -6.59268 1.46149 2.95308
0.00537 0.00087 -0.00192 22.10089 -22.95964 -6.59237 42.29136 2.43464 -5.69735 -13.26229 -0.26434 -1.22813 77.07128 -97.55582 55.63383 6.26422 100.40279 10.7541 0.55632 169.33981 85.54329 47.02174 5.6677 -71.10875 -11.14569 -0.07276 38.01254 -4.38501 -11.51771 -22.58754 -6.72517 -2.25179 -3.33196 42.16859 8.09876 4.84693 -27.65136 -6.59928 1.42647 2.93111
0.0053 0.00085 -0.00216 22.05791 -22.93735 -6.58289 42.29199 2.41624 -5.68543 -13.31254 -0.22262 -1.22905 78.93677 -97.34264 55.6341 6.34451 100.77615 11.41882 0.45116 162.48787 85.37412 51.71852 6.0059 -70.51088 -10.84812 0.08603 38.00206 -4.40156 -11.48889 -22.59324 -6.7262 -2.25356 -3.33204 42.13046 8.17346 5.23392 -27.65329 -6.6052 1.39642 2.91299
0.00515 0.00081 -0.00239 21.97272 -22.93992 -6.55615 42.33952 2.37162 -5.71244 -13.45713 -0.20279 -1.23052 84.48087 -96.66337 55.63405 6.26298 101.30041 14.64139 0.33656 123.34922 84.69842 58.47494 7.92773 -70.44224 -8.92111 -0.46439 38.05107 -4.39438 -11.24777 -22.61148 -6.72929 -2.26287 -3.33884 42.129 8.16428 5.33428 -27.655 -6.60828 1.38389 2.90786
0.00498 0.00075 -0.00261 21.87078 -22.9499 -6.52365 42.40292 2.3169 -5.75361 -13.63843 -0.191 -1.23218 91.45534 -95.87141 55.63388 6.12744 101.95803 18.91078 0.22894 73.62037 83.81363 65.82789 10.45574 -70.63692 -6.44699 -1.24682 38.11979 -4.37946 -10.93745 -22.6336 -6.7331 -2.27424 -3.34761 42.1391 8.1288 5.3442 -27.65672 -6.6106 1.37666 2.90679
